<?xml version="1.0" encoding="UTF-8"?>
<svg version="1.1" xmlns="http://www.w3.org/2000/svg" width="500" height="500">
<path d="M0 0 C1.22476547 -0.00902847 2.44953094 -0.01805695 3.71141052 -0.02735901 C6.29382929 -0.04177746 8.87628389 -0.05072713 11.45874023 -0.05444336 C15.30975285 -0.06621869 19.15909551 -0.11539115 23.00976562 -0.16601562 C47.72886107 -0.32677285 71.33735683 3.65836822 94.80859375 11.37109375 C95.97962646 11.75322021 95.97962646 11.75322021 97.17431641 12.14306641 C123.37900107 20.85974462 148.25707101 34.0718894 169.80859375 51.37109375 C170.70191406 52.07363281 171.59523438 52.77617188 172.515625 53.5 C179.94156194 59.43862482 186.91249648 65.83326571 193.80859375 72.37109375 C194.56269531 73.08265625 195.31679688 73.79421875 196.09375 74.52734375 C200.60921697 78.90815464 204.5954427 83.6231064 208.52734375 88.53125 C210.00452008 90.37013218 211.50338915 92.19188198 213.02734375 93.9921875 C250.0673486 137.87937635 267.28577903 194.62528111 267.18359375 251.37109375 C267.18338226 252.45547729 267.18317078 253.53986084 267.18295288 254.65710449 C267.15185368 270.62765002 266.42054282 285.76316814 262.80859375 301.37109375 C262.451162 303.12564009 262.09700618 304.88085691 261.74609375 306.63671875 C252.32205935 351.70454546 228.26630265 392.24196837 196.80859375 425.37109375 C196.0503833 426.17232666 196.0503833 426.17232666 195.27685547 426.98974609 C187.8952677 434.73500423 180.16417341 441.63285746 171.59130859 448.03271484 C169.82104128 449.36174872 168.07395481 450.71721026 166.328125 452.078125 C125.26338 483.65725328 72.281924 501.27721554 20.70922852 500.83764648 C16.98213589 500.80848454 13.25645712 500.81713744 9.52929688 500.83007812 C-3.69002845 500.81851453 -16.26137681 500.16104387 -29.19140625 497.37109375 C-30.16730713 497.17781494 -31.14320801 496.98453613 -32.14868164 496.78540039 C-66.3049472 489.82467584 -99.850788 475.73696991 -128.19140625 455.37109375 C-129.22394531 454.63246094 -130.25648438 453.89382813 -131.3203125 453.1328125 C-138.91268863 447.55979065 -146.06346188 441.51651262 -153.19140625 435.37109375 C-154.47724609 434.29021484 -154.47724609 434.29021484 -155.7890625 433.1875 C-156.51996094 432.56746094 -157.25085938 431.94742187 -158.00390625 431.30859375 C-158.94169922 430.51775391 -158.94169922 430.51775391 -159.8984375 429.7109375 C-161.19140625 428.37109375 -161.19140625 428.37109375 -161.19140625 426.37109375 C-161.85140625 426.37109375 -162.51140625 426.37109375 -163.19140625 426.37109375 C-164.6015625 424.97265625 -164.6015625 424.97265625 -166.25390625 422.99609375 C-168.19489353 420.70038806 -170.13248193 418.4335788 -172.1953125 416.24609375 C-184.77381967 402.90314692 -194.43337687 387.39905665 -203.19140625 371.37109375 C-203.61470215 370.59749512 -204.03799805 369.82389648 -204.47412109 369.02685547 C-216.19140625 347.49447132 -216.19140625 347.49447132 -216.19140625 342.37109375 C-216.85140625 342.04109375 -217.51140625 341.71109375 -218.19140625 341.37109375 C-218.8671875 339.6484375 -218.8671875 339.6484375 -219.50390625 337.30859375 C-220.56162742 333.49440836 -221.70906979 329.72011848 -222.92390442 325.95310974 C-230.92504493 300.98674293 -233.86282878 277.07738386 -233.81640625 250.87109375 C-233.81726227 249.70335419 -233.81811829 248.53561462 -233.81900024 247.33248901 C-233.78864952 232.76529585 -232.9186074 218.68910936 -230.19140625 204.37109375 C-229.96743164 203.1785498 -229.74345703 201.98600586 -229.51269531 200.75732422 C-222.20644681 164.33108832 -207.29403961 131.14957319 -185.19140625 101.37109375 C-184.79872559 100.83274902 -184.40604492 100.2944043 -184.00146484 99.73974609 C-177.09123194 90.275919 -169.32237989 81.79289208 -161.19140625 73.37109375 C-160.29035156 72.42878906 -159.38929688 71.48648438 -158.4609375 70.515625 C-153.22642722 65.14796342 -147.73139893 60.27597343 -141.82714844 55.65625 C-140.66889201 54.74624077 -139.51644681 53.82881246 -138.36816406 52.90625 C-100.34160601 22.36313577 -49.36650501 0.2331221 0 0 Z " fill="#FEFEFE" transform="translate(233.19140625,-0.37109375)"/>
<path d="M0 0 C3.79377637 1.85113763 6.28069372 4.15762589 7.828125 8.12109375 C8.82381761 13.44067372 7.508027 16.4946974 4.61816406 20.87646484 C1.71626466 24.68466052 -1.7699202 27.85372498 -5.25 31.125 C-12.5107007 38.17378847 -18.18148528 45.11860128 -23 54 C-23.4846875 54.84949219 -23.969375 55.69898438 -24.46875 56.57421875 C-35.77661159 78.53491337 -35.20350254 103.01643512 -28 126 C-26.61363514 129.8700804 -24.98357346 133.40441582 -23 137 C-22.52175781 137.94488281 -22.04351562 138.88976562 -21.55078125 139.86328125 C-11.34212896 158.92108007 6.31717713 172.48568156 26.5 179.75 C27.99323035 180.19031151 29.49417378 180.60490698 31 181 C31.98742187 181.27714844 32.97484375 181.55429687 33.9921875 181.83984375 C57.1958762 187.65416298 82.03330018 183.05065711 102.5 170.875 C111.96553945 164.59641916 119.91649878 156.25454611 127.74609375 148.09375 C131.19370929 144.89111234 133.78628542 143.13004085 138.5 142.625 C143.45381951 143.15576638 145.7516904 144.8191666 149.3125 148.1875 C151.50822546 151.84704243 151.64199938 154.88795333 151 159 C149.34293605 164.07475835 146.3952289 166.61432672 142.40625 169.90234375 C140.13857569 171.87919619 138.08110781 173.97669744 136.01708984 176.16259766 C123.44572757 189.34163908 109.05072864 197.83768965 92 204 C91.05640625 204.34546875 90.1128125 204.6909375 89.140625 205.046875 C86.77283454 205.82554435 84.42911462 206.44115461 82 207 C80.85015625 207.27585937 79.7003125 207.55171875 78.515625 207.8359375 C64.24910837 211.02248648 50.30049208 210.67572303 35.875 208.6875 C34.59653198 208.51130127 34.59653198 208.51130127 33.29223633 208.33154297 C4.53518205 203.91172287 -20.80135905 184.61302792 -38 162 C-38.58523437 161.28972656 -39.17046875 160.57945312 -39.7734375 159.84765625 C-56.69988969 138.05772119 -61.06274439 106.53927418 -58.3125 79.875 C-54.33369588 51.82860452 -39.78967476 28.75894373 -20.1875 8.9375 C-19.54087402 8.28144775 -18.89424805 7.62539551 -18.22802734 6.94946289 C-17.30111084 6.02895142 -17.30111084 6.02895142 -16.35546875 5.08984375 C-15.53018677 4.26794556 -15.53018677 4.26794556 -14.68823242 3.42944336 C-10.24541555 -0.33233434 -5.64185276 -1.05251371 0 0 Z " fill="#9094A6" transform="translate(147,202)"/>
<path d="M0 0 C23.77020448 19.59999316 40.30537972 46.20025686 43.6875 77.25 C45.74909474 107.51596529 38.50365222 138.15006132 18.609375 161.84765625 C15.80089136 164.96408766 12.93139393 167.99973597 10 171 C9.39542969 171.6197168 8.79085937 172.23943359 8.16796875 172.87792969 C6.26446801 174.82116746 4.35354965 176.75663744 2.4375 178.6875 C1.82962646 179.30020752 1.22175293 179.91291504 0.59545898 180.54418945 C-3.05255129 184.17773784 -5.04390892 186.14535111 -10.1875 186.4375 C-15.00393989 186.414157 -17.28548746 184.76807452 -20.6875 181.5078125 C-23.21812342 178.60060822 -23.2101804 176.04235707 -23.42578125 172.265625 C-22.11901104 165.31216882 -15.52900803 160.41142184 -10.6875 155.75 C-4.73039636 149.88920057 0.77967031 144.27159298 5 137 C5.59941406 136.03320312 6.19882812 135.06640625 6.81640625 134.0703125 C11.38502415 126.26837212 13.75500735 118.78111371 15.57421875 109.99829102 C15.87150671 108.60304908 16.19389161 107.21302296 16.53515625 105.82788086 C21.83420991 83.99057533 15.95230214 62.08034234 5 43 C2.33675571 38.71890747 -0.6976259 34.8081431 -4 31 C-4.62261719 30.278125 -5.24523437 29.55625 -5.88671875 28.8125 C-17.59359783 16.2466256 -33.57419867 8.27653999 -50 4 C-50.67571045 3.82194824 -51.3514209 3.64389648 -52.04760742 3.46044922 C-71.2089832 -1.2431988 -92.50535611 2.25267805 -110 11 C-110.98226562 11.49113281 -111.96453125 11.98226562 -112.9765625 12.48828125 C-121.14506 16.91024566 -127.36353604 22.6289946 -134 29 C-136.34008673 31.0987325 -138.69914868 33.1736853 -141.0625 35.24609375 C-143.05754192 37.0089314 -143.05754192 37.0089314 -145 39.09765625 C-147.58323418 41.55475595 -149.57722015 42.85254827 -153.1484375 43.22265625 C-157.57044817 42.9045818 -160.40370307 42.23382774 -163.5625 39 C-166.11825595 35.49925866 -166.90539505 32.56236677 -166.5703125 28.25 C-165.48441364 23.96590585 -162.97034557 21.17785474 -160 18 C-159.26136719 17.2059375 -158.52273437 16.411875 -157.76171875 15.59375 C-151.91208007 9.54819041 -145.65231827 4.14086535 -139 -1 C-138.22269531 -1.60585937 -137.44539063 -2.21171875 -136.64453125 -2.8359375 C-95.89591057 -33.00493304 -39.74517146 -30.33611046 0 0 Z " fill="#8F94A6" transform="translate(368,112)"/>
<path d="M0 0 C3.15689734 1.60714774 5.19415756 2.97438234 7.375 5.75 C8.32843894 9.18238017 8.73054097 12.52064385 8 16 C4.96914257 21.11114256 1.20019407 25.08465175 -3 29.25878906 C-3.69641602 29.95870972 -4.39283203 30.65863037 -5.11035156 31.37976074 C-7.40191293 33.68008826 -9.70066907 35.97306562 -12 38.265625 C-13.59925097 39.86622378 -15.19820499 41.4671193 -16.796875 43.06829834 C-20.14259106 46.41695847 -23.49188673 49.7619855 -26.84375 53.10449219 C-31.14135872 57.39068844 -35.42990207 61.68582524 -39.71582031 65.98370743 C-43.01327822 69.28838746 -46.31547875 72.5882952 -49.61914062 75.88677216 C-51.20266575 77.46896272 -52.78470544 79.0526414 -54.36523438 80.63782501 C-56.57202262 82.84968615 -58.78510979 85.05504505 -61 87.25878906 C-61.65258789 87.91542542 -62.30517578 88.57206177 -62.97753906 89.24859619 C-63.88584473 90.14844238 -63.88584473 90.14844238 -64.8125 91.06646729 C-65.33457031 91.58778355 -65.85664063 92.10909981 -66.39453125 92.64621353 C-70.31914637 95.95558399 -73.8198865 96.435274 -78.8125 96.3203125 C-82.12666123 95.8350246 -83.77202532 94.43051784 -86 92 C-88.52033079 87.67943292 -88.95004827 83.88988868 -88 79 C-86.66654682 77.0434103 -86.66654682 77.0434103 -84.91413879 75.1605072 C-84.27655451 74.46934752 -83.63897022 73.77818783 -82.9820652 73.06608391 C-82.32798368 72.38427622 -81.67390217 71.70246853 -81 71 C-80.42048773 70.3945038 -79.84097546 69.78900761 -79.24390221 69.16516304 C-77.44929811 67.32050407 -75.63402002 65.49873377 -73.8112793 63.68188477 C-73.13071976 62.99957291 -72.45016022 62.31726105 -71.74897766 61.61427307 C-69.52654555 59.38748319 -67.30052801 57.1643193 -65.07421875 54.94140625 C-63.5194513 53.38596448 -61.96483226 51.83037435 -60.41035461 50.27464294 C-57.16671161 47.02953161 -53.92128148 43.78622124 -50.67456055 40.54418945 C-46.50696923 36.38232355 -42.34392178 32.21594581 -38.18217754 28.04823399 C-34.97991586 24.84236763 -31.77528731 21.6388758 -28.56992531 18.43610954 C-27.03294219 16.89979448 -25.49670425 15.36273356 -23.96121788 13.82492256 C-21.82379927 11.68497592 -19.6832216 9.54824125 -17.54174805 7.41235352 C-16.5872023 6.45477142 -16.5872023 6.45477142 -15.6133728 5.47784424 C-10.36969576 0.25958954 -7.31568402 -0.89755451 0 0 Z " fill="#1C284A" transform="translate(290,202)"/>
<path d="M0 0 C0.99 1.485 0.99 1.485 2 3 C1.45187653 3.47706894 0.90375305 3.95413788 0.33901978 4.44566345 C-7.75706567 11.60316397 -15.35309862 19.22566074 -22.9765625 26.87890625 C-24.39694588 28.30115872 -25.81755318 29.7231876 -27.2383728 31.14500427 C-30.94601535 34.85643335 -34.65064284 38.57085736 -38.35461426 42.28594971 C-42.14732563 46.08895904 -45.94293088 49.8890778 -49.73828125 53.68945312 C-57.16166205 61.12350295 -64.58185545 68.56072537 -72 76 C-72.66 75.67 -73.32 75.34 -74 75 C-73.08767105 74.08989166 -72.1753421 73.17978333 -71.23536682 72.24209595 C-62.65355944 63.68052734 -54.07436875 55.11634446 -45.49775791 46.54957008 C-41.08796192 42.14500104 -36.67723708 37.74137046 -32.2644043 33.33984375 C-28.00881216 29.09508714 -23.75564079 24.84791905 -19.50416374 20.59904099 C-17.87866818 18.97539846 -16.25229024 17.35263883 -14.62503242 15.73076248 C-12.35260467 13.46555394 -10.08328522 11.19727578 -7.81469727 8.92822266 C-7.13568863 8.2528093 -6.45667999 7.57739594 -5.75709534 6.8815155 C-5.14148743 6.26453293 -4.52587952 5.64755035 -3.89161682 5.01187134 C-3.08550886 4.20714606 -3.08550886 4.20714606 -2.26311588 3.38616371 C-0.88876681 2.00409392 -0.88876681 2.00409392 0 0 Z " fill="#EBF0F7" transform="translate(296,220)"/>
<path d="M0 0 C0.66 0.33 1.32 0.66 2 1 C-0.05336006 3.13453242 -2.11680465 5.25739569 -4.1875 7.375 C-4.76564453 7.97828125 -5.34378906 8.5815625 -5.93945312 9.203125 C-9.08031481 12.39722163 -11.56898144 14.74829984 -16 16 C-16 15.01 -16 14.02 -16 13 C-15.01 13 -14.02 13 -13 13 C-13 12.34 -13 11.68 -13 11 C-12.34 10.67 -11.68 10.34 -11 10 C-11.33 9.34 -11.66 8.68 -12 8 C-11.01 7.67 -10.02 7.34 -9 7 C-8.34 7.33 -7.68 7.66 -7 8 C-7 7.34 -7 6.68 -7 6 C-7.66 5.67 -8.32 5.34 -9 5 C-8.67 4.34 -8.34 3.68 -8 3 C-6.02 3 -4.04 3 -2 3 C-2 2.34 -2 1.68 -2 1 C-1.34 0.67 -0.68 0.34 0 0 Z " fill="#252E48" transform="translate(233,282)"/>
<path d="M0 0 C0.99 0.33 1.98 0.66 3 1 C2.55269531 1.37511719 2.10539062 1.75023437 1.64453125 2.13671875 C-2.07162561 5.28237818 -5.59909623 8.50959876 -9 12 C-10.66666667 13.66666667 -12.33333333 15.33333333 -14 17 C-14.886875 17.928125 -15.77375 18.85625 -16.6875 19.8125 C-19 22 -19 22 -21 22 C-21.33 22.66 -21.66 23.32 -22 24 C-22.66 23.34 -23.32 22.68 -24 22 C-23.52433594 21.66871094 -23.04867188 21.33742188 -22.55859375 20.99609375 C-14.22824188 14.87489597 -7.19554909 7.38059783 0 0 Z " fill="#E5E7EC" transform="translate(293,367)"/>
<path d="M0 0 C0.33 0.66 0.66 1.32 1 2 C0.01 3.1446875 0.01 3.1446875 -1 4.3125 C-3.29850538 6.84277939 -3.29850538 6.84277939 -3 10 C-3.66 10.66 -4.32 11.32 -5 12 C-5 12.99 -5 13.98 -5 15 C-6.98 15.66 -8.96 16.32 -11 17 C-9.52869627 12.6426774 -7.16919385 9.28065866 -4.375 5.6875 C-3.95476563 5.13771484 -3.53453125 4.58792969 -3.1015625 4.02148438 C-2.07279961 2.67707832 -1.0370991 1.33798587 0 0 Z " fill="#EDE9E9" transform="translate(51,97)"/>
<path d="M0 0 C4.77609498 1.64178265 8.79382904 4.26546702 13 7 C12.01 7.495 12.01 7.495 11 8 C8.375 7.0625 8.375 7.0625 6 6 C5.34 6.66 4.68 7.32 4 8 C3.67 7.01 3.34 6.02 3 5 C1.68 5.33 0.36 5.66 -1 6 C-0.67 4.02 -0.34 2.04 0 0 Z " fill="#F2F0F0" transform="translate(373,32)"/>
<path d="M0 0 C0.66 0.33 1.32 0.66 2 1 C0.30345753 3.0537093 -0.60267645 3.92382916 -3.26171875 4.43359375 C-7.32849392 5.27479546 -10.77410052 7.20304711 -14.4765625 9.0390625 C-17 10 -17 10 -20 9 C-17.23012967 7.68543451 -14.45916513 6.3732713 -11.6875 5.0625 C-10.90181641 4.68931641 -10.11613281 4.31613281 -9.30664062 3.93164062 C-8.54931641 3.57392578 -7.79199219 3.21621094 -7.01171875 2.84765625 C-6.31522217 2.51773682 -5.61872559 2.18781738 -4.90112305 1.84790039 C-3 1 -3 1 0 0 Z " fill="#E6E1E1" transform="translate(158,16)"/>
<path d="M0 0 C-3.3 3.63 -6.6 7.26 -10 11 C-10.66 9.68 -11.32 8.36 -12 7 C-10.7934375 6.6596875 -10.7934375 6.6596875 -9.5625 6.3125 C-8.716875 5.879375 -7.87125 5.44625 -7 5 C-6.10613836 2.45224694 -6.10613836 2.45224694 -6 0 C-2.25 -1.125 -2.25 -1.125 0 0 Z " fill="#F0EBEC" transform="translate(441,413)"/>
<path d="M0 0 C1.98 0.99 3.96 1.98 6 3 C4.35 4.98 2.7 6.96 1 9 C0.34 8.67 -0.32 8.34 -1 8 C-1 7.01 -1 6.02 -1 5 C-1.33 4.34 -1.66 3.68 -2 3 C-1.34 2.01 -0.68 1.02 0 0 Z " fill="#F4F0F2" transform="translate(410,434)"/>
<path d="M0 0 C3.465 1.485 3.465 1.485 7 3 C7 3.99 7 4.98 7 6 C3.44219804 5.39009109 0.3171411 4.4216319 -3 3 C-2.01 2.67 -1.02 2.34 0 2 C0 1.34 0 0.68 0 0 Z " fill="#F3EEEE" transform="translate(160,480)"/>
<path d="M0 0 C0.66 0.33 1.32 0.66 2 1 C-4.435 5.95 -4.435 5.95 -11 11 C-11.66 10.67 -12.32 10.34 -13 10 C-12.67 9.34 -12.34 8.68 -12 8 C-11.01 8 -10.02 8 -9 8 C-8.67 7.01 -8.34 6.02 -8 5 C-7.01 4.67 -6.02 4.34 -5 4 C-3.97980427 3.0206121 -2.97850195 2.02104551 -2 1 C-1.34 0.67 -0.68 0.34 0 0 Z " fill="#EFEBEB" transform="translate(406,444)"/>
<path d="M0 0 C2.97 0.495 2.97 0.495 6 1 C3.48115349 3.51884651 1.56355758 3.8257588 -1.875 4.6875 C-2.92429687 4.95949219 -3.97359375 5.23148437 -5.0546875 5.51171875 C-7.85166838 5.97540921 -9.372192 5.94575698 -12 5 C-11.21753906 4.80664062 -10.43507813 4.61328125 -9.62890625 4.4140625 C-8.61699219 4.15367187 -7.60507812 3.89328125 -6.5625 3.625 C-5.55316406 3.36976563 -4.54382813 3.11453125 -3.50390625 2.8515625 C-0.84429676 2.27426046 -0.84429676 2.27426046 0 0 Z " fill="#E9E2E3" transform="translate(314,489)"/>
<path d="M0 0 C0.66 0.33 1.32 0.66 2 1 C1.3125 3.4375 1.3125 3.4375 0 6 C-2.4375 6.625 -2.4375 6.625 -5 7 C-6.79385992 8.4579186 -6.79385992 8.4579186 -8 10 C-8.66 9.67 -9.32 9.34 -10 9 C-6.7 6.03 -3.4 3.06 0 0 Z " fill="#E9E5E6" transform="translate(95,52)"/>
<path d="M0 0 C0.66 0.33 1.32 0.66 2 1 C-0.66666667 3.66666667 -3.33333333 6.33333333 -6 9 C-6 5 -6 5 -4.6875 3.515625 C-3.125 2.34375 -1.5625 1.171875 0 0 Z " fill="#2A334B" transform="translate(281,202)"/>
<path d="M0 0 C2.1755306 2.1755306 2.71879553 3.55973892 3.6875 6.4375 C3.95949219 7.21996094 4.23148437 8.00242188 4.51171875 8.80859375 C5 11 5 11 4 14 C3.67 13.67 3.34 13.34 3 13 C2.34 13.66 1.68 14.32 1 15 C1 14.34 1 13.68 1 13 C0.34 12.67 -0.32 12.34 -1 12 C0.32 11.67 1.64 11.34 3 11 C2.7834375 10.45730469 2.566875 9.91460937 2.34375 9.35546875 C1.92609375 8.28232422 1.92609375 8.28232422 1.5 7.1875 C1.2215625 6.47980469 0.943125 5.77210938 0.65625 5.04296875 C0 3 0 3 0 0 Z " fill="#EAE6E3" transform="translate(483,159)"/>
<path d="M0 0 C0.99 0.33 1.98 0.66 3 1 C1.71372289 2.17260611 0.42080217 3.3379283 -0.875 4.5 C-1.95394531 5.47453125 -1.95394531 5.47453125 -3.0546875 6.46875 C-5 8 -5 8 -7 8 C-7.33 8.66 -7.66 9.32 -8 10 C-8.66 9.34 -9.32 8.68 -10 8 C-9.36191406 7.50628906 -8.72382813 7.01257813 -8.06640625 6.50390625 C-7.24011719 5.86324219 -6.41382813 5.22257812 -5.5625 4.5625 C-4.73878906 3.92441406 -3.91507812 3.28632813 -3.06640625 2.62890625 C-1.12498733 1.16417803 -1.12498733 1.16417803 0 0 Z " fill="#EEEEF3" transform="translate(279,381)"/>
<path d="M0 0 C0.99 1.32 1.98 2.64 3 4 C2.01 4 1.02 4 0 4 C0.66 5.98 1.32 7.96 2 10 C-1.0916909 7.47043472 -1.90931332 4.77545388 -3 1 C-2.01 0.67 -1.02 0.34 0 0 Z " fill="#E8E5E5" transform="translate(33,368)"/>
<path d="M0 0 C1.32 0.33 2.64 0.66 4 1 C0.535 3.97 0.535 3.97 -3 7 C-1.125 2.25 -1.125 2.25 0 0 Z " fill="#2A3247" transform="translate(284,229)"/>
<path d="" fill="#000000" transform="translate(0,0)"/>
<path d="" fill="#000000" transform="translate(0,0)"/>
<path d="" fill="#000000" transform="translate(0,0)"/>
<path d="" fill="#000000" transform="translate(0,0)"/>
<path d="" fill="#000000" transform="translate(0,0)"/>
<path d="" fill="#000000" transform="translate(0,0)"/>
<path d="" fill="#000000" transform="translate(0,0)"/>
<path d="" fill="#000000" transform="translate(0,0)"/>
<path d="" fill="#000000" transform="translate(0,0)"/>
<path d="" fill="#000000" transform="translate(0,0)"/>
<path d="" fill="#000000" transform="translate(0,0)"/>
<path d="" fill="#000000" transform="translate(0,0)"/>
<path d="" fill="#000000" transform="translate(0,0)"/>
<path d="" fill="#000000" transform="translate(0,0)"/>
<path d="" fill="#000000" transform="translate(0,0)"/>
<path d="" fill="#FFFFFF" transform="translate(0,0)"/>
<path d="" fill="#00FF00" transform="translate(0,0)"/>
<path d="" fill="#FF0000" transform="translate(0,0)"/>
<path d="" fill="#000000" transform="translate(0,0)"/>
<path d="" fill="#000000" transform="translate(0,0)"/>
<path d="" fill="#000000" transform="translate(0,0)"/>
<path d="" fill="#000000" transform="translate(0,0)"/>
<path d="" fill="#000000" transform="translate(0,0)"/>
<path d="" fill="#000000" transform="translate(0,0)"/>
<path d="" fill="#000000" transform="translate(0,0)"/>
<path d="" fill="#000000" transform="translate(0,0)"/>
</svg>
