<?xml version="1.0" encoding="utf-8"?>
<!-- Generator: Adobe Illustrator 24.1.1, SVG Export Plug-In . SVG Version: 6.00 Build 0)  -->
<svg version="1.1" id="Layer_1" xmlns="http://www.w3.org/2000/svg" xmlns:xlink="http://www.w3.org/1999/xlink" x="0px" y="0px"
	 viewBox="0 0 512 512" style="enable-background:new 0 0 512 512;" xml:space="preserve">
<g>
	<path d="M90.76,265.8c10.75-10.72,28.19-10.72,38.94,0c10.75,10.72,10.75,28.14,0.03,38.86l-0.03,0.03l-58.44,58.35
		c-21.47,21.44-21.53,56.24-0.08,77.71l0.08,0.08c21.53,21.47,56.38,21.47,77.93,0l136.34-136.15
		c10.72-10.72,10.75-28.11,0.03-38.86l-0.03-0.03c-10.75-10.72-10.78-28.11-0.06-38.86l0.06-0.06c10.78-10.72,28.19-10.72,38.97,0
		c32.22,32.16,32.27,84.35,0.14,116.57l-0.14,0.14L188.13,479.75c-43.08,42.97-112.79,42.97-155.87,0
		c-42.97-42.88-43.02-112.46-0.14-155.43l0.14-0.17l58.49-58.38V265.8z M421.22,246.2c-10.75,10.72-28.19,10.72-38.94,0
		s-10.75-28.14-0.03-38.86l0.03-0.03l58.44-58.35c21.47-21.44,21.5-56.24,0.08-77.71l-0.08-0.08c-21.55-21.47-56.41-21.47-77.93,0
		L226.46,207.31c-10.72,10.72-10.75,28.11-0.03,38.86l0.03,0.03c10.75,10.69,10.78,28.11,0.06,38.86l-0.06,0.03
		c-10.78,10.75-28.19,10.75-38.97,0c-32.22-32.13-32.27-84.32-0.14-116.54l0.14-0.14L323.87,32.25
		c43.08-42.97,112.79-42.97,155.87,0c42.97,42.88,43.02,112.46,0.14,155.43l-0.14,0.14l-58.52,58.41V246.2z"/>
</g>
</svg>
